<svg width="40" height="31" viewBox="0 0 40 31" fill="none" xmlns="http://www.w3.org/2000/svg">
<path d="M24.6367 0.5C24.2517 0.53391 23.85 0.567819 23.465 0.618684C21.8223 0.804719 20.2246 1.28336 18.745 2.03272C17.2197 2.7923 15.8331 3.81124 14.645 5.04561C14.595 5.11343 14.495 5.14734 14.41 5.13038C13.5849 5.00561 12.7496 4.96585 11.9167 5.0117C10.2177 5.09663 8.55416 5.53701 7.03 6.30536C4.08333 7.80417 2.00833 10.1372 0.803333 13.2704C0.363693 14.4315 0.103932 15.6549 0.0333333 16.8971C0.0333333 16.9819 0.0166667 17.0497 0 17.1175V18.4281C0.0333333 18.7689 0.0833333 19.0927 0.116667 19.4335C0.283333 20.812 0.67 22.1395 1.28833 23.384C2.66167 26.1748 4.77 28.2179 7.59833 29.4776C8.88991 30.0569 10.2726 30.3974 11.6817 30.483C11.735 30.483 11.7817 30.4898 11.825 30.5H26.1183C26.4233 30.4712 26.7217 30.4407 27.03 30.3983C28.6615 30.2119 30.2476 29.7332 31.715 28.9842C34.2211 27.7399 36.3283 25.7973 37.7917 23.3823C38.7938 21.7893 39.4653 20.0047 39.765 18.1382C39.8483 17.5617 39.8983 16.9649 39.9667 16.385C39.9667 16.3003 39.9833 16.2325 40 16.1646V14.8184C39.9667 14.4284 39.9167 14.0521 39.9167 13.696C39.7337 12.0357 39.2631 10.4216 38.5267 8.92828C37.2854 6.38109 35.3658 4.23976 32.9867 2.74822C31.4288 1.74108 29.6875 1.06354 27.8667 0.756019C27.2633 0.654289 26.6783 0.603425 26.075 0.535605C25.9917 0.535605 25.925 0.51865 25.8417 0.501695L24.6367 0.5ZM25.2517 3.37046C28.795 3.37894 31.8017 4.77094 34.2433 7.53289C35.6258 9.12834 36.5567 11.0756 36.9367 13.167C37.1867 14.4624 37.2383 15.7899 37.0533 17.1005C36.7367 19.3827 35.8833 21.424 34.4267 23.2128C32.7341 25.3267 30.3847 26.7916 27.765 27.3667C26.3637 27.6788 24.9193 27.7362 23.4983 27.5363C21.6733 27.2989 20 26.6868 18.4933 25.5797C18.0936 25.2887 17.7189 24.9637 17.3733 24.6082C15.33 22.5651 13.3067 20.5051 11.2633 18.462C10.7617 17.9534 10.7283 17.3905 10.9633 16.8784C11.0862 16.6051 11.2926 16.3795 11.5518 16.2353C11.8111 16.0911 12.1091 16.0359 12.4017 16.0782C12.7517 16.1121 13.0217 16.3172 13.2717 16.5732C15.1133 18.462 16.9383 20.3186 18.7783 22.2091C20.1598 23.6423 21.976 24.5598 23.9333 24.8133C27.18 25.2558 29.9417 24.2352 32.1333 21.7648C33.3217 20.4203 34.0417 18.8028 34.3433 16.9988C34.7767 14.3081 34.16 11.8903 32.5183 9.76246C31.0633 7.87199 29.155 6.69702 26.845 6.27145C24.485 5.84758 22.26 6.30536 20.235 7.61767C20.185 7.65158 20.0683 7.66853 20.0167 7.63462C19.2804 7.08053 18.4961 6.59587 17.6733 6.18667C17.6733 6.18667 17.6567 6.16972 17.64 6.13581C18.2828 5.59132 18.9846 5.12317 19.7317 4.74042C21.0915 3.98944 22.591 3.53663 24.1333 3.41116C24.5049 3.38257 24.8774 3.369 25.25 3.37046H25.2517ZM12.5767 7.88555C15.0017 7.84486 17.2283 8.77569 19.2133 10.6492C20.6367 12.009 21.9417 13.423 23.3133 14.8371C23.6983 15.227 23.7817 15.7221 23.5983 16.2494C23.415 16.7767 22.995 17.0327 22.46 17.1175C22.2665 17.1443 22.0695 17.1228 21.886 17.0549C21.7025 16.987 21.538 16.8746 21.4067 16.7275C20.1 15.3983 18.795 14.0877 17.5067 12.7431C16.4517 11.636 15.1967 11.0053 13.7233 10.7323C10.46 10.1372 7.16333 12.0615 5.99167 15.2101C4.485 19.2114 6.86167 23.7401 10.9617 24.6946C11.765 24.8811 12.62 24.8811 13.4567 24.8642C13.69 24.8472 13.8233 24.932 13.99 25.0846C14.795 25.8866 15.6483 26.6868 16.485 27.4854C16.535 27.5363 16.6017 27.5871 16.6517 27.638C16.5517 27.638 16.485 27.655 16.4183 27.655H12.585C10.3733 27.6545 8.22788 26.8869 6.50285 25.4788C4.77782 24.0707 3.57632 22.1064 3.09667 19.91C2.00833 14.9218 4.82 9.86419 9.64 8.38403C10.5908 8.07749 11.5795 7.90966 12.5767 7.88555Z" fill="#0C2B47"/>
</svg>
