<svg width="40" height="33" viewBox="0 0 40 33" fill="none" xmlns="http://www.w3.org/2000/svg">
<path d="M39.8821 18.3492C39.6475 16.6991 39.0755 15.1341 38.1816 13.6984C37.4021 12.4455 36.4018 11.3311 35.2078 10.3839L35.2111 10.381L22.6717 0.757048C22.6627 0.749095 22.6533 0.741602 22.6435 0.7346C22.2266 0.415469 21.6621 0.239868 21.0547 0.239868C20.4465 0.239868 19.86 0.41586 19.404 0.735617C18.9138 1.07782 18.6336 1.53188 18.614 2.01519C18.5961 2.46612 18.8113 2.9 19.2217 3.23821C20.0288 3.87452 20.834 4.52467 21.6403 5.17561C22.4228 5.80761 23.2291 6.45847 24.0315 7.09211L8.67289 7.08171C6.91647 7.08171 5.7205 7.9059 5.47448 9.28575C5.36638 9.89014 5.55714 10.5547 5.98358 11.0637C6.43601 11.6032 7.0929 11.9008 7.83315 11.9008L9.00399 11.9016C10.6215 11.9016 12.2461 11.8976 13.8685 11.8937L15.4157 11.8901L1.47641 22.1952L1.42107 22.2357C0.642461 22.832 0.132731 23.6681 0.0227546 24.5293C-0.0606087 25.1818 0.0917152 25.7781 0.463445 26.2543C0.906483 26.822 1.5982 27.1343 2.41133 27.1343C3.21013 27.1343 4.02521 26.8318 4.70746 26.281L12.2349 20.1253C12.2027 20.4258 12.1637 20.8668 12.1681 21.1869C12.1766 21.6937 12.3394 22.7105 12.5971 23.536C13.1297 25.2326 14.0268 26.7848 15.2634 28.148C16.5501 29.5663 18.1172 30.6908 19.9208 31.4897C21.8276 32.3324 23.8774 32.7602 26.0135 32.7602H26.0333C28.1761 32.755 30.2324 32.3204 32.1454 31.4681C33.952 30.6598 35.5184 29.5307 36.8002 28.1127C38.0352 26.7425 38.9311 25.1877 39.4627 23.4926C39.7256 22.6534 39.8941 21.7876 39.9649 20.9111C40.0305 20.064 40.0023 19.202 39.8821 18.3492ZM26.1696 26.4807C21.4621 26.4807 17.6446 23.0683 17.6446 18.8586C17.6446 14.6493 21.4621 11.2369 26.1696 11.2369C30.8773 11.2369 34.6944 14.6493 34.6944 18.8586C34.6945 23.0683 30.8773 26.4807 26.1696 26.4807ZM31.0859 18.1888C31.1553 19.4452 30.6531 20.6119 29.7711 21.4755C28.874 22.3553 27.5939 22.9079 26.1624 22.9079C24.7315 22.9079 23.4512 22.3553 22.5538 21.4755C21.6722 20.6119 21.171 19.4454 21.2401 18.1898C21.3077 16.9694 21.9035 15.8921 22.8008 15.1293C23.6832 14.3793 24.8681 13.9217 26.1623 13.9217C27.4568 13.9217 28.6413 14.3794 29.5238 15.1293C30.4216 15.8921 31.0175 16.9686 31.0859 18.1888Z" fill="#0C2B47"/>
</svg>
