<svg width="28" height="41" viewBox="0 0 28 41" fill="none" xmlns="http://www.w3.org/2000/svg">
<path d="M20.6352 13.8333C22.4033 13.8333 24.099 13.131 25.3492 11.8807C26.5995 10.6305 27.3019 8.93478 27.3019 7.16667C27.3019 5.39856 26.5995 3.70286 25.3492 2.45262C24.099 1.20238 22.4033 0.5 20.6352 0.5H7.30186C5.53375 0.5 3.83806 1.20238 2.58782 2.45262C1.33757 3.70286 0.635196 5.39856 0.635196 7.16667C0.635196 8.93478 1.33757 10.6305 2.58782 11.8807C3.83806 13.131 5.53375 13.8333 7.30186 13.8333C5.53375 13.8333 3.83806 14.5357 2.58782 15.786C1.33757 17.0362 0.635196 18.7319 0.635196 20.5C0.635196 22.2681 1.33757 23.9638 2.58782 25.214C3.83806 26.4643 5.53375 27.1667 7.30186 27.1667C5.98332 27.1667 4.69439 27.5577 3.59806 28.2902C2.50173 29.0227 1.64725 30.0639 1.14267 31.2821C0.638081 32.5003 0.506059 33.8407 0.763294 35.1339C1.02053 36.4271 1.65547 37.615 2.58782 38.5474C3.52017 39.4797 4.70805 40.1147 6.00126 40.3719C7.29447 40.6291 8.63491 40.4971 9.85309 39.9925C11.0713 39.4879 12.1124 38.6335 12.845 37.5371C13.5775 36.4408 13.9685 35.1519 13.9685 33.8333V13.8333H20.6352Z" fill="#0C2B47"/>
<path d="M20.6823 27.2295C24.3729 27.2295 27.3647 24.2377 27.3647 20.5471C27.3647 16.8566 24.3729 13.8647 20.6823 13.8647C16.9917 13.8647 13.9999 16.8566 13.9999 20.5471C13.9999 24.2377 16.9917 27.2295 20.6823 27.2295Z" fill="#0C2B47"/>
</svg>
