<svg width="40" height="41" viewBox="0 0 40 41" fill="none" xmlns="http://www.w3.org/2000/svg">
<path d="M36.3703 0.500003H3.62524C1.62135 0.500003 0 2.12135 0 4.12525V36.8725C0 38.8742 1.62135 40.5 3.62524 40.5H36.3725C38.3742 40.5 40 38.8764 40 36.8725V4.12525C40 3.6488 39.9061 3.17702 39.7236 2.7369C39.5412 2.29677 39.2737 1.89693 38.9366 1.56024C38.5995 1.22355 38.1993 0.956604 37.759 0.774681C37.3186 0.592757 36.8468 0.499418 36.3703 0.500003ZM13.3667 8.2776C14.6945 8.2776 15.8087 9.32736 15.8087 10.6751C15.8087 12.0452 14.6945 13.0772 13.3667 13.0772V13.1261C12.0234 13.1261 10.9425 12.0452 10.9425 10.7063C10.9425 9.36072 12.0234 8.2776 13.3667 8.2776ZM29.7225 31.3012C27.2494 31.3012 26.0506 29.8289 26.0506 27.8183C26.0506 27.2401 26.124 26.6329 26.3041 26.0124L27.4785 21.7733C27.6297 21.3107 27.6697 20.8725 27.6697 20.4811C27.6697 19.1133 26.8357 18.2926 25.5101 18.2926C23.8176 18.2926 22.7078 19.5003 22.1296 21.8467L19.8321 31.0677H15.8043L16.5316 28.1697C15.3439 30.1113 13.7048 31.3101 11.6764 31.3101C9.22547 31.3101 8.08007 29.9045 8.08007 27.7872C8.08982 27.1803 8.16136 26.5759 8.29358 25.9835L10.1307 18.4972H7.2883L8.15124 15.3168H14.9903L12.2858 26.0013C12.1079 26.6885 12.0411 27.2445 12.0411 27.6426C12.0411 28.3254 12.3703 28.5234 12.8974 28.6479C13.2221 28.7146 15.7776 28.6724 17.1632 25.5876L18.938 18.4972H16.0601L16.9297 15.3746H23.1282L22.3297 18.971C23.4062 16.9715 25.5591 15.0521 27.6808 15.0521C29.9316 15.0521 31.8065 16.6713 31.8065 19.7472C31.8065 20.6368 31.6664 21.5175 31.4062 22.3716L30.2497 26.5039C30.1544 26.8615 30.0985 27.2284 30.0828 27.5981C30.0828 28.3232 30.3853 28.6746 30.9013 28.6746C31.4306 28.6746 32.1312 28.272 32.9008 26.068L34.4754 26.6729C33.5546 29.949 31.8465 31.3012 29.7225 31.3012Z" fill="#0C2B47"/>
</svg>
