<?xml version="1.0" encoding="UTF-8"?>
<svg id="Layer_1" data-name="Layer 1" xmlns="http://www.w3.org/2000/svg" viewBox="0 0 597.24 562.44">
  <defs>
    <style>
      .cls-1 {
        fill: #e8d7e9;
        stroke-width: 0px;
      }
    </style>
  </defs>
  <path class="cls-1" d="m201.18,265.82c-36.2-43.49-70.49-92.17-82.96-149.11-4.4-20.07-4.4-44.85,10.61-55.99,15.04-11.19,36.34-1.9,51.1,11.1,38.31,33.72,56.65,87.52,78.32,140.15-7.02-59.51-13.97-120.73-.83-177.99,2.18-9.39,5.03-18.97,11.02-25.93,6-6.96,15.82-10.52,23.92-6.18,8.63,4.63,12.26,16.02,14.67,26.23,12.38,52.42,15.72,107.08,11.38,165.37,21.1-59.47,44.91-122.64,93.53-156.12,8.17-5.62,17.08-10.32,26.8-11.27,9.72-.95,20.26,2.33,26.97,10.54,10.53,12.89,8.44,32.7,3.52,48.58-12.78,41.14-39.35,74.26-65.69,114.9,39.53-37.14,82.15-75.8,134.4-82.37,13.66-1.71,28.27-.92,40.53,6.76,12.26,7.73,21.24,23.84,18.2,38.67-2.51,12.19-12.01,20.61-21.16,27.64-41.72,32.1-88.61,56.07-142.58,74.2,39.26-8.85,81.54-3.6,119.11,14.85,9.69,4.76,19.34,10.6,26.36,19.54,7.02,8.93,10.99,21.58,7.79,32.49-4.6,15.76-21.33,22.02-36.29,23.73-34.26,3.88-69.01-5.11-110.2-12.81,23.7,21.95,44.57,47.72,61.76,76.2,6.57,10.83,12.83,23.71,9.94,35.97-3.34,14.4-18.73,21.56-32.11,19.07-13.38-2.49-25-12.24-35.35-22.44-27.43-27.09-50.07-59.53-75.91-88.73,21.34,36.26,34.82,77.99,38.85,120.42.74,7.86,1.15,15.87-.65,23.39-1.86,7.48-6.29,14.43-12.87,17.02-12.68,4.98-25.94-7.48-34.62-19.6-23.95-33.37-40.52-73.08-48.62-123.36-.18,45.44-.38,91.17-8.36,135.33-2.31,12.78-5.51,25.89-13.22,35.47-7.76,9.54-21.29,14.4-31.79,7.89-8.39-5.21-12.71-15.88-15.45-26.03-13.33-49.22-3.42-100.97,10.23-157.15-23.84,54.74-53.39,106.18-87.93,152.94-5.99,8.13-12.32,16.28-20.69,21.31-8.37,5.03-19.18,6.39-27.65.8-8.71-5.73-13.01-17.68-12.93-28.72.08-11.04,3.86-21.42,7.99-31.29,20.35-48.5,50.98-91.24,92.6-126.29-45.04,18.01-85.41,47.89-130.9,64.72-16.74,6.21-36.06,10.33-52.06.59-16.45-10.04-24.48-34.78-17.25-53.34,8.22-21.1,30.55-29.4,50.8-34.53,36.6-9.31,73.99-15.21,113.49-16.3-39.74-17.98-80.23-36.45-113.65-66.91-7.06-6.44-13.98-13.69-17.39-23.03-3.41-9.34-2.4-21.19,4.55-27.07,7.02-5.94,17.14-4.14,25.94-1.74,48.49,13.12,95.29,35.68,134.58,58.29l.19.11Z"/>
</svg>