<svg width="390" height="95" viewBox="0 0 390 95" fill="none" xmlns="http://www.w3.org/2000/svg">
<g clip-path="url(#clip0_148_1731)">
<path d="M500.203 32.7398C488.306 20.413 465.383 17.2754 444.809 18.329C421.459 19.5383 398.42 25.103 378.061 34.1873C376.046 27.5645 372.382 21.4618 366.195 16.4303C348.58 2.06159 316.24 2.6944 293.127 12.9135C284.778 16.5989 277.39 21.2607 270.74 26.5098C266.454 17.0988 258.431 8.65131 246.59 4.48989C226.876 -2.44707 201.931 4.43174 186.163 16.4003C178.859 21.9624 173.114 28.3925 168.198 35.2533C164.769 29.1622 160.027 23.5718 153.855 18.8158C133.203 2.93354 96.1604 -0.719115 71.9495 13.2562C63.2072 18.2958 56.8989 24.858 52.1084 32.1642C51.5857 31.8165 51.0963 31.4671 50.575 31.1444C42.6389 26.035 33.8587 21.4252 23.7375 19.2282C13.6163 17.0312 1.96891 17.5336 -7.00498 22.0333C-21.1339 29.1345 -24.6806 43.6596 -23.0093 56.1076C-21.6751 66.1366 -17.7071 75.8673 -11.6074 84.7242C-16.8571 84.4406 -22.0999 84.2823 -27.3954 84.3783C-52.3653 84.8239 -78.0894 90.3638 -97.287 102.801C-116.485 115.239 -127.979 135.211 -122.499 153.352C-116.281 173.89 -90.131 187.905 -62.6741 192.321C-46.0851 194.985 -29.0166 194.832 -11.9124 193.521C-17.5035 214.067 -12.1026 236.183 4.48451 252.57C29.5946 277.351 78.0092 286.951 117.495 274.934C135.77 269.384 151.348 259.412 162.575 247.221C172.707 259.772 184.401 271.482 199.828 280.343C223.611 294.014 258.635 299.363 284.855 287.11C309.342 275.658 319.637 252.259 319.248 230.967C319.141 224.866 318.296 218.78 316.753 212.81C324.253 213.721 331.893 214.147 339.536 214.045C353.819 213.872 368.863 211.721 380.084 204.808C394.448 195.935 399.279 180.96 396.697 167.231C408.068 166.593 419.104 163.562 429.907 160.568C444.376 156.539 459.627 152.114 469.283 143.027C480.883 132.097 481.607 116.297 474.3 103.864C472.706 101.163 470.752 98.634 468.569 96.1929C476.804 92.2876 484.435 87.7626 490.937 82.2705C507.048 68.624 513.926 47.1007 500.141 32.8188L500.203 32.7398Z" fill="#E8D7EA"/>
</g>
<defs>
<clipPath id="clip0_148_1731">
<rect width="390" height="95" fill="white"/>
</clipPath>
</defs>
</svg>
