<svg width="27" height="30" viewBox="0 0 27 30" fill="none" xmlns="http://www.w3.org/2000/svg">
<path d="M24.1436 2.94209C22.8295 1.67273 20.6597 1.51092 19.0775 2.41562C17.4922 3.32021 16.5299 5.14777 16.4747 6.98101C16.4196 8.81426 17.2025 10.617 18.4313 11.9697C17.6175 11.456 16.7887 10.9327 15.862 10.6892C14.9323 10.4426 13.8728 10.515 13.1107 11.1053C12.016 11.9555 11.8744 13.635 12.4058 14.9182C12.9404 16.2016 13.9924 17.1758 15.0152 18.109C11.552 17.0665 8.76213 16.8994 6.22294 17.6428C4.57229 18.1265 2.94914 19.0668 2.17653 20.6112C1.02106 22.9157 2.08073 25.673 3.13867 28.0238C9.90502 27.3138 17.0793 26.6484 24.8674 25.8063C24.7782 17.6871 24.6889 9.57094 24.1435 2.94517L24.1436 2.94209Z" fill="#0C2B47" stroke="#0C2B47" stroke-width="2.5" stroke-linecap="round" stroke-linejoin="round"/>
</svg>
