<?xml version="1.0" encoding="utf-8"?>
<!-- Generator: Adobe Illustrator 28.0.0, SVG Export Plug-In . SVG Version: 6.00 Build 0)  -->
<svg version="1.1" id="Layer_1" xmlns="http://www.w3.org/2000/svg" xmlns:xlink="http://www.w3.org/1999/xlink" x="0px" y="0px"
	 viewBox="0 0 360 504" style="enable-background:new 0 0 360 504;" xml:space="preserve">
<style type="text/css">
	.st0{fill:#0A2B47;}
	.st1{fill:#F4F2EF;}
</style>
<g>
	<path class="st0" d="M145.35,426.89c-0.35-2.84-0.73-5.62-1.02-8.42c-0.62-6.08-1.23-12.15-1.78-18.24
		c-0.63-6.9-1.2-13.81-1.8-20.72c-0.5-5.85-0.92-11.7-1.54-17.54c-0.87-8.18-1.88-16.35-2.85-24.53c-0.04-0.37-0.18-0.73-0.25-1.1
		c-0.31-1.8,0.72-3.42,2.43-3.87c1.68-0.44,3.5,0.5,3.94,2.27c0.53,2.12,0.99,4.29,1.21,6.46c1.24,12.26,2.43,24.52,3.56,36.78
		c1.01,10.9,1.87,21.81,2.92,32.71c0.52,5.43,1.31,10.83,1.99,16.24c0.06,0.51,0.22,1,0.34,1.5c0.5,2.12-0.6,3.84-2.73,4.28
		c-3.64,0.74-7.24,1.67-10.39,3.72c-3.22,2.1-6.17,4.5-7.7,8.19c-0.32,0.78-0.51,1.64-0.61,2.48c-0.15,1.21,0.31,1.8,1.49,2.08
		c0.5,0.12,1.02,0.2,1.53,0.21c9.17,0.09,18.34,0.27,27.5,0.17c3.3-0.04,6.61-0.64,9.88-1.21c3.07-0.54,5.05-2.5,6.18-5.44
		c1.49-3.88,2.28-7.9,2.78-11.99c1.51-12.42,1.26-24.87,0.48-37.33c-0.54-8.67-1.41-17.3-2.92-25.86c-0.39-2.19,0.77-3.82,2.83-4.13
		c1.79-0.27,3.36,1.01,3.72,3.04c1.66,9.44,2.69,18.96,3.08,28.53c0.31,7.75,0.47,15.51,0.37,23.26c-0.1,7.72-0.76,15.43-2.85,22.92
		c-0.56,2-1.33,3.97-2.2,5.85c-2.04,4.4-5.79,6.61-10.32,7.74c-4.74,1.18-9.58,1.39-14.42,1.37c-8.21-0.03-16.41-0.16-24.62-0.35
		c-3.69-0.08-6.79-1.42-8.43-5.02c-1.06-2.33-0.9-4.74-0.22-7.15c1.28-4.49,4.19-7.79,7.69-10.69c3.44-2.85,7.37-4.74,11.65-5.93
		C144.64,427.11,144.99,427,145.35,426.89z"/>
	<path class="st0" d="M219.51,431.13c-1.11-3.42-2.18-6.71-3.25-9.99c-3.44-10.52-6.89-21.04-10.32-31.57
		c-0.21-0.64-0.41-1.33-0.39-2c0.03-1.65,1.22-2.89,2.86-3.14c1.49-0.23,3,0.68,3.55,2.21c0.49,1.39,0.89,2.81,1.35,4.21
		c4.47,13.68,8.95,27.36,13.42,41.05c0.93,2.85-0.02,4.47-2.99,5.09c-4.31,0.89-8.43,2.21-11.92,5.02
		c-2.51,2.01-4.84,4.18-5.92,7.35c-1.05,3.09-0.3,4.16,2.93,4.21c7.14,0.11,14.28,0.29,21.42,0.31c5.01,0.02,10.06,0.13,14.95-1.16
		c4.91-1.3,5.01-1.7,5.6-6.2c0.6-4.59,0.28-9.19-0.14-13.77c-1.77-18.85-5.57-37.37-9.52-55.85c-2.92-13.68-6-27.32-9-40.99
		c-0.45-2.04-0.88-4.09-1.19-6.16c-0.21-1.43,0.44-2.57,1.73-3.22c1.27-0.64,2.6-0.55,3.64,0.43c0.54,0.51,0.99,1.27,1.14,2
		c3.73,16.97,7.58,33.93,11.07,50.95c2.61,12.73,4.89,25.53,7.05,38.34c1.38,8.22,2.31,16.53,2.1,24.9
		c-0.06,2.32-0.39,4.65-0.76,6.94c-0.65,3.97-3,6.55-6.73,8.01c-3.7,1.45-7.56,2.13-11.47,2.18c-8.65,0.1-17.3-0.03-25.95-0.07
		c-1.72-0.01-3.44,0-5.15-0.07c-6.24-0.29-9.85-5.05-8.49-11.15c0.96-4.3,3.43-7.63,6.62-10.54c3.61-3.31,7.79-5.58,12.48-6.92
		C218.59,431.41,218.97,431.29,219.51,431.13z"/>
	<g>
		<g>
			<path class="st1" d="M348.18,261.45c-1.36-13.25-7.65-25.61-15.51-36.49c-11-15.25-25.36-28.09-41.7-37.74
				c14.18-15.47,26.09-32.44,32.58-52.12c3.25-9.85,4.82-21.3-0.93-29.99c-4.56-6.9-13.07-10.64-21.45-11.14
				c-8.39-0.51-16.7,1.84-24.46,4.98c-27.46,11.08-49.22,31.46-68.99,53.55c-7.66-31.17-18.96-61.49-33.67-90.15
				c-5.11-9.94-12.06-20.76-23.28-22.68c-7.58-1.3-15.43,2.07-20.92,7.35c-5.49,5.27-8.93,12.24-11.61,19.29
				c-11.71,30.88-10.23,64.32-5.49,97.33c-11.13-3.55-22.55-6.21-34.13-7.93c-15.58-2.31-32.03-2.82-46.57,3.11
				c-14.54,5.93-26.65,19.64-26.38,35.04c0.24,13.45,9.47,25.19,19.84,34.04c14.55,12.42,31.67,21.01,49.8,27.67
				c-9.38,12.45-17.25,25.98-23.34,40.25c-4.83,11.34-8.59,23.91-5.43,35.8c4.12,15.47,19.92,26.38,36.22,27.82
				c16.3,1.44,32.54-5.38,45.01-15.74c8.7-7.23,15.77-16.06,21.94-25.49c4.01,14.17,9.51,27.94,16.45,40.99
				c6.89,12.97,16.1,26,30.1,31.14c16.23,5.96,35.47-0.84,46.83-13.65c11.36-12.8,15.69-30.43,15.34-47.37
				c-0.21-10.16-1.95-20.17-4.3-30.09c11.42,3.88,23.26,6.56,35.27,7.93c15.93,1.81,33.6,0.85,45.69-9.46
				C345.33,288.95,349.53,274.7,348.18,261.45z"/>
		</g>
	</g>
	<path class="st0" d="M205.84,168.46c1.02,0.21,2.06,0.38,3.07,0.63c6.64,1.64,11.59,5.69,15.6,11.04
		c3.57,4.76,5.95,10.11,7.59,15.81c4.17,14.5,3.19,28.73-2.5,42.63c-2.37,5.8-5.88,10.89-10.79,14.9c-9.64,7.86-21.92,7.4-31-1.09
		c-4.38-4.09-7.51-9.01-9.83-14.49c-0.15-0.35-0.31-0.7-0.54-1.21c-0.7,1.68-1.3,3.22-1.98,4.72c-2.56,5.64-5.99,10.65-10.89,14.54
		c-9.51,7.55-21.68,6.99-30.55-1.32c-6.5-6.1-10.31-13.71-12.45-22.2c-3.38-13.4-2.83-26.64,2.18-39.59
		c2.55-6.6,6.27-12.46,11.92-16.88c9.51-7.43,21.2-6.96,30.19,1.11c4.59,4.12,7.78,9.18,10.19,14.79c0.12,0.29,0.23,0.58,0.36,0.86
		c0.03,0.06,0.11,0.09,0.28,0.22c0.38-0.95,0.73-1.87,1.11-2.78c2.74-6.62,6.53-12.48,12.34-16.85c3.33-2.5,7.03-4.14,11.2-4.64
		c0.18-0.02,0.35-0.14,0.53-0.21C203.18,168.46,204.51,168.46,205.84,168.46z M215.46,181.17c-0.57-0.49-1.19-1.07-1.86-1.59
		c-5.3-4.15-11.57-4.7-17.13-1.44c-5.04,2.95-8.37,7.45-10.7,12.65c-5.98,13.3-6.4,26.97-2.08,40.8c1.84,5.91,4.78,11.25,9.48,15.45
		c5.61,5.02,12.29,5.9,18.3,2.36c5.1-3.01,8.34-7.61,10.76-12.88c0.02-0.04-0.06-0.13-0.1-0.23c-0.42,0.19-0.84,0.39-1.26,0.58
		c-3.82,1.65-7.64,1.65-11.44-0.05c-4.12-1.85-7.09-5-9.09-8.92c-5.87-11.53-5.95-23.27-0.62-35c1.99-4.38,5.05-8.01,9.59-9.99
		C211.19,182.08,213.33,181.75,215.46,181.17z M161.87,183.62c-0.62-0.56-1.04-0.95-1.47-1.33c-5.91-5.03-12.95-5.45-19.24-1.05
		c-4.54,3.18-7.56,7.63-9.69,12.63c-5.52,13.01-5.89,26.3-1.71,39.73c1.87,6.03,4.86,11.46,9.66,15.73
		c5.5,4.9,12.21,5.75,18.22,2.21c5.06-2.98,8.25-7.6,10.71-12.79c0.03-0.07-0.05-0.19-0.09-0.29c-6.16,3.19-11.82,1.73-15.87-1.31
		c-2.4-1.81-4.36-4.04-5.74-6.69c-6.02-11.52-6.31-23.3-0.95-35.07C148.77,188.69,153.67,183.99,161.87,183.62z"/>
	<path class="st0" d="M28.39,233.06c0.1-6.73,0.67-12.17,2.95-17.29c2.39-5.36,6.17-9.13,12.15-10.2c4.25-0.76,8.18,0.31,11.85,2.42
		c5.15,2.96,9.1,7.19,12.22,12.16c5.01,7.99,9.85,16.08,14.73,24.16c4.67,7.74,9.56,15.32,15.77,21.94
		c7.37,7.86,15.85,14.04,26.28,17.25c2.03,0.62,3.01,2.36,2.43,4.2c-0.58,1.85-2.35,2.74-4.37,2.14c-6.61-1.98-12.63-5.12-18.18-9.2
		c-8.58-6.29-15.56-14.11-21.3-22.99c-4.74-7.34-9.06-14.96-13.67-22.39c-3.06-4.92-6.19-9.81-9.52-14.55
		c-2.2-3.14-5.09-5.68-8.56-7.41c-5.7-2.85-10.98-0.96-13.64,4.84c-1.38,3-1.96,6.2-2.27,9.45c-0.95,10.14,1.49,19.61,5.69,28.72
		c4.8,10.43,11.55,19.52,19.24,27.96c13.26,14.55,28.81,26.08,46.39,34.87c4.68,2.34,9.56,4.31,14.36,6.41
		c1.22,0.53,2.12,1.28,2.33,2.64c0.41,2.66-1.97,4.6-4.52,3.62c-2.65-1.02-5.28-2.11-7.88-3.27c-15.05-6.69-28.9-15.32-41.4-26.05
		c-12.51-10.75-23.39-22.9-31.49-37.36c-4.44-7.93-7.69-16.31-8.97-25.35C28.64,237.14,28.52,234.49,28.39,233.06z"/>
	<path class="st0" d="M316.3,373c-17.69-0.14-35.34-4.32-51.88-12.98c-6.34-3.32-12.27-7.27-17.73-11.91
		c-1.54-1.31-1.79-3.29-0.6-4.75c1.25-1.53,3.24-1.68,4.84-0.34c13.43,11.18,28.88,18.01,45.96,21.35
		c10.49,2.05,21.05,2.58,31.66,1.33c3.94-0.46,7.84-1.32,11.7-2.23c2.32-0.55,4.38-1.78,5.95-3.68c2.23-2.69,1.99-5.38-0.68-7.66
		c-2.62-2.24-5.78-3.09-9.08-3.49c-4.32-0.52-8.68-0.82-12.99-1.43c-8.46-1.22-16.44-3.97-24-7.95
		c-10.5-5.54-19.39-12.96-26.05-22.84c-2.19-3.25-3.91-6.83-5.71-10.33c-1-1.94-0.22-3.86,1.6-4.64c1.79-0.77,3.61,0.07,4.48,2.07
		c4.9,11.24,12.87,19.84,23.02,26.51c9.03,5.93,18.94,9.57,29.66,10.96c3.64,0.47,7.32,0.66,10.96,1.11
		c4.67,0.58,9.02,2.01,12.65,5.2c5.34,4.69,5.73,11.79,0.95,17.09c-3.15,3.49-7.23,5.27-11.68,6.29
		C332.07,372.36,324.69,372.95,316.3,373z"/>
	<path class="st0" d="M180.36,289.21c-10-0.57-18.05-4.53-23.16-13.5c-0.69-1.2-1.41-2.46-1.09-3.96c0.35-1.66,1.62-2.82,3.29-3.03
		c1.56-0.19,3.13,0.65,3.83,2.12c3.48,7.36,9.59,10.77,17.42,10.73c7.44-0.04,13.32-3.35,16.82-10.22c0.98-1.93,3.17-2.67,5.06-1.74
		c1.88,0.93,2.61,3.06,1.69,5.07c-2.52,5.48-6.72,9.28-12.09,11.85C188.44,288.28,184.52,289.23,180.36,289.21z"/>
</g>
</svg>
