<?xml version="1.0" encoding="UTF-8"?>
<svg id="Layer_1" data-name="Layer 1" xmlns="http://www.w3.org/2000/svg" viewBox="0 0 265.06 275.62">
  <defs>
    <style>
      .cls-1 {
        fill: #E8D7EA;
        stroke-width: 0px;
      }
    </style>
  </defs>
  <path class="cls-1" d="m88.32,75.49c-1.09,3.09-2.91,5.04-5.45,5.86-2.54.82-5.13.82-7.76,0-2.64-.82-5.32-1.32-8.04-1.5-2.72-.18-4.81.19-6.27,1.09-1.63,1.27-2.63,2.68-2.99,4.22-.37,1.54-.09,3.54.82,5.99.91,2.46,2.22,5.09,3.95,7.91,1.73,2.82,4.13,6.5,7.22,11.03,6.36,9.09,10.9,18.03,13.62,26.84,2.73,8.81,3.45,19.4,2.18,31.74-.73,6.91-3.54,13.49-8.45,19.76-4.9,6.26-10.99,11.31-18.26,15.12-13.99,7.45-26.8,8.63-38.42,3.54-5.64-2.54-10.35-6.13-14.17-10.76-3.81-4.63-5.9-9.77-6.26-15.4-.36-5.63,2.27-11.07,7.9-16.35,1.27-1.27,3-2.13,5.17-2.59,2.18-.45,5.36-.68,9.54-.68h7.63c14.53-1.09,18.35-10.53,11.44-28.34-2.91-7.09-6.26-13.4-10.08-18.94-3.81-5.54-7.13-10.22-9.95-14.03-2.82-3.82-4.77-7.81-5.86-11.99-1.46-5.99-1.27-12.98.55-20.98,1.81-7.99,5.26-14.17,10.35-18.53,5.09-4.17,10.5-7.08,16.21-8.72,5.72-1.63,10.81-2.36,15.26-2.18,4.45.19,9.85,1.01,16.21,2.46,5.09.91,9.04,3.45,11.86,7.63,2.81,4.18,4.22,8.68,4.22,13.48s-.73,9.58-2.18,14.31Zm172.75,134.6c-4.18,7.46-10.9,12.67-20.16,15.67-9.27,2.99-19.35,3.13-30.25.41-5.09-1.09-9.54-2.72-13.35-4.91-3.82-2.18-7.36-5.08-10.63-8.72-3.27-3.63-5.99-6.99-8.17-10.08-2.18-3.09-5.13-7.5-8.85-13.22-3.72-5.72-6.95-10.49-9.67-14.3-4.54-6.36-9.36-9.17-14.44-8.45-6.54.73-7.09,9.45-1.64,26.16,2,5.82,6.09,16.35,12.26,31.61,3.82,9.81,3.13,18.62-2.04,26.43-5.18,7.81-11.76,12.89-19.76,15.26-7.08,2.18-13.99,1.36-20.71-2.45-6.72-3.81-10.72-10.45-11.99-19.89-.73-4.91,0-14.85,2.18-29.84,2.18-14.99,4.04-29.6,5.58-43.87,1.54-14.26,1.32-30.11-.68-47.55-.18-1.09-.73-4.22-1.64-9.4-.91-5.17-1.59-9.22-2.04-12.12-.46-2.91-.95-7.04-1.5-12.4-.54-5.36-.91-9.99-1.09-13.89-.18-3.91-.13-8.13.13-12.67.27-4.54.86-8.54,1.77-11.99,2-8.17,5.22-14.12,9.68-17.85,4.44-3.72,9.3-5.4,14.58-5.04,6.17.54,11.44,3.54,15.8,8.99,4.36,5.45,6.45,12.17,6.27,20.16-.18,5.45-1.86,12.72-5.04,21.8-3.18,9.09-5.22,15.81-6.13,20.17-2.73,14.35-1.46,22.16,3.81,23.43,5.63,1.09,12.62-1.81,20.98-8.72,8.36-6.9,14.53-15.35,18.53-25.34,9.62-24.15,17.44-41.05,23.44-50.68,6.72-11.08,14.99-14.99,24.79-11.72,5.99,1.82,9.81,5.77,11.44,11.85,1.64,6.09,1.32,13.08-.95,20.98-2.27,7.91-5.09,15.4-8.44,22.48-3.36,7.08-7.05,13.62-11.04,19.62-3.45,5.63-7.67,10.9-12.67,15.81-5,4.91-9.18,8.54-12.54,10.9-3.36,2.36-7.4,5.09-12.13,8.17-4.72,3.09-7.36,4.72-7.9,4.91-1.82,1.46-3.09,2.63-3.82,3.54-.73.91-.86,2.23-.4,3.95.45,1.73,1.67,3.77,3.68,6.13,5.08,5.63,11.81,9.94,20.16,12.94s18.44,5.36,30.25,7.09c11.81,1.73,19.34,3.04,22.62,3.95,7.81,2.18,12.71,6.54,14.71,13.08,1.99,6.54.99,13.08-3,19.62Z"/>
</svg>