<svg width="73" height="55" viewBox="0 0 73 55" fill="none" xmlns="http://www.w3.org/2000/svg">
<path d="M1.60474 52.2203C11.3595 49.5875 13.9843 43.8648 14.4818 37.491C15.3149 26.802 8.05943 16.9502 16.237 7.9476C24.1071 -0.715242 61.448 -0.674827 67.4941 6.30156C73.1642 12.8452 72.9094 34.5347 65.0392 40.3099C59.0011 44.7384 40.539 43.0641 34.2987 42.7244C30.667 42.5262 26.8491 42.2996 23.5652 43.8729C20.8353 45.1792 18.8172 47.5774 16.5039 49.5308C11.7883 53.5185 5.32143 54.0119 1.60878 52.2163L1.60474 52.2203Z" fill="#E8D7EA" stroke="#0C2B47" stroke-width="2.5" stroke-linecap="round" stroke-linejoin="round"/>
<path d="M29.2109 26.4905C30.4215 26.4905 31.4029 24.9677 31.4029 23.0893C31.4029 21.2108 30.4215 19.688 29.2109 19.688C28.0003 19.688 27.0189 21.2108 27.0189 23.0893C27.0189 24.9677 28.0003 26.4905 29.2109 26.4905Z" fill="#0C2B47" stroke="#0C2B47" stroke-width="2.5" stroke-linecap="round" stroke-linejoin="round"/>
<path d="M42.2255 26.4905C43.4361 26.4905 44.4174 24.9677 44.4174 23.0893C44.4174 21.2108 43.4361 19.688 42.2255 19.688C41.0149 19.688 40.0334 21.2108 40.0334 23.0893C40.0334 24.9677 41.0149 26.4905 42.2255 26.4905Z" fill="#0C2B47" stroke="#0C2B47" stroke-width="2.5" stroke-linecap="round" stroke-linejoin="round"/>
<path d="M55.2442 26.4905C56.4548 26.4905 57.4362 24.9677 57.4362 23.0893C57.4362 21.2108 56.4548 19.688 55.2442 19.688C54.0336 19.688 53.0522 21.2108 53.0522 23.0893C53.0522 24.9677 54.0336 26.4905 55.2442 26.4905Z" fill="#0C2B47" stroke="#0C2B47" stroke-width="2.5" stroke-linecap="round" stroke-linejoin="round"/>
</svg>
