<svg width="134" height="76" viewBox="0 0 134 76" fill="none" xmlns="http://www.w3.org/2000/svg">
<path d="M133.946 12.22C131.426 30.52 122.336 48.93 104.746 61.41C87.1459 73.88 60.1759 79.18 38.7259 71.45C23.8059 66.08 13.0959 55.21 7.15586 43.32C1.21586 31.43 -0.444135 18.51 0.0958646 4.7C12.8459 3.13 25.6059 1.57 38.3559 0C38.6559 6.43 38.9959 12.97 41.7359 19.03C44.4659 25.09 49.9859 30.7 57.7959 32.85C68.5659 35.82 80.9559 31.37 88.3459 24.53C95.7359 17.68 99.2259 8.89999 102.546 0.369995C114.756 4.9 128.036 7.72 133.956 12.21L133.946 12.22Z" fill="#0C2B47"/>
</svg>
