<svg width="138" height="79" viewBox="0 0 138 79" fill="none" xmlns="http://www.w3.org/2000/svg">
<path d="M135.946 14.22C133.426 32.52 124.336 50.93 106.746 63.41C89.1459 75.88 62.1759 81.18 40.7259 73.45C25.8059 68.08 15.0959 57.21 9.15586 45.32C3.21586 33.43 1.55586 20.51 2.09586 6.7C14.8459 5.13 27.6059 3.57 40.3559 2C40.6559 8.43 40.9959 14.97 43.7359 21.03C46.4659 27.09 51.9859 32.7 59.7959 34.85C70.5659 37.82 82.9559 33.37 90.3459 26.53C97.7359 19.68 101.226 10.9 104.546 2.37C116.756 6.9 130.036 9.72 135.956 14.21L135.946 14.22Z" stroke="#2D2C29" stroke-width="3.75" stroke-linecap="round" stroke-linejoin="round"/>
</svg>
