<svg width="134" height="76" viewBox="0 0 134 76" fill="none" xmlns="http://www.w3.org/2000/svg">
<path d="M133.946 62.84C131.426 44.54 122.336 26.13 104.746 13.65C87.1459 1.18001 60.1759 -4.11999 38.7259 3.61001C23.8059 8.98001 13.0959 19.85 7.15586 31.74C1.21586 43.63 -0.444135 56.55 0.0958646 70.36C12.8459 71.93 25.6059 73.49 38.3559 75.06C38.6559 68.63 38.9959 62.09 41.7359 56.03C44.4659 49.97 49.9859 44.36 57.7959 42.21C68.5659 39.24 80.9559 43.69 88.3459 50.53C95.7359 57.38 99.2259 66.16 102.546 74.69C114.756 70.16 128.036 67.34 133.956 62.85L133.946 62.84Z" fill="#0C2B47"/>
</svg>
