<svg width="138" height="79" viewBox="0 0 138 79" fill="none" xmlns="http://www.w3.org/2000/svg">
<path d="M135.956 64.84C133.436 46.54 124.346 28.13 106.756 15.65C89.1559 3.18001 62.1859 -2.11999 40.7259 5.61001C25.8059 10.98 15.0959 21.85 9.15586 33.74C3.21586 45.63 1.55586 58.56 2.09586 72.36C14.8459 73.93 27.6059 75.49 40.3559 77.06C40.6559 70.63 40.9959 64.09 43.7359 58.03C46.4659 51.97 51.9859 46.36 59.7959 44.21C70.5659 41.24 82.9559 45.69 90.3459 52.53C97.7359 59.38 101.226 68.16 104.546 76.69C116.756 72.16 130.036 69.34 135.956 64.85V64.84Z" stroke="#0C2B47" stroke-width="3.75" stroke-linecap="round" stroke-linejoin="round"/>
</svg>
